<?xml version="1.0" encoding="utf-8"?>
<!-- Generator: Adobe Illustrator 26.0.3, SVG Export Plug-In . SVG Version: 6.00 Build 0)  -->
<svg xmlns="http://www.w3.org/2000/svg" xmlns:xlink="http://www.w3.org/1999/xlink" version="1.1" id="Layer_1" x="0px" y="0px" style="enable-background:new 0 0 1220.48 491.48;" xml:space="preserve" viewBox="87.38 86.08 1045.73 320.58">
<style type="text/css">
	.st0{fill:#9196FF;}
	.st1{fill-rule:evenodd;clip-rule:evenodd;fill:#9196FF;}
</style>
<g>
	<path class="st0" d="M346.03,348.47V241.44c0-1.1-0.9-2-2-2h-29.76c-1.1,0-2-0.9-2-2v-34.02c0-1.1,0.9-2,2-2h29.76c1.1,0,2-0.9,2-2   v-44.89c0-1.1,0.9-2,2-2h45.28c1.1,0,2,0.9,2,2v44.89c0,1.1,0.9,2,2,2h42.56c1.1,0,2,0.9,2,2v34.02c0,1.1-0.9,2-2,2h-42.56   c-1.1,0-2,0.9-2,2v97.33c0,21.34,6.6,24.83,22.5,24.83h22.06c1.1,0,2,0.9,2,2v34.51c0,1.07-0.84,1.94-1.9,2   c-13.24,0.68-21.76,0.68-38.06,0.68C367.76,402.78,346.03,392.7,346.03,348.47z"></path>
	<path class="st0" d="M446.74,300.74c0-63.24,47.72-103.98,105.92-103.98c58.59,0,105.54,39.96,105.54,103.98   c0,64.41-47.34,105.92-105.54,105.92C493.69,406.66,446.74,365.93,446.74,300.74z M606.99,300.74c0-36.47-22.12-62.08-54.32-62.08   c-32.98,0-54.71,25.22-54.71,62.08c0,38.02,22.12,64.02,54.71,64.02C584.87,364.76,606.99,339.15,606.99,300.74z"></path>
	<path class="st0" d="M781.59,406.66c-57.04,0-104.76-39.58-104.76-106.31c0-63.63,49.28-103.6,102.82-103.6   c54.32,0,100.88,36.86,100.88,108.25v8.86c0,1.1-0.9,2-2,2H729.56c-1.23,0-2.17,1.11-1.98,2.33c4.71,30.45,27.54,49.28,55.55,49.28   c18.26,0,36.51-5.96,46-23.01c0.36-0.64,1.02-1.05,1.75-1.05h45.02c1.36,0,2.31,1.33,1.9,2.62   C864.45,388.41,822.27,406.66,781.59,406.66z M729.19,280.56h97.9c1.21,0,2.14-1.07,1.98-2.28c-3.23-25.88-23.05-42.73-50.2-42.73   c-25.65,0-47.27,15.77-51.66,42.67C727.01,279.45,727.95,280.56,729.19,280.56z"></path>
	<path class="st0" d="M965.27,241.44V400.4c0,1.1-0.9,2-2,2h-44.5c-1.1,0-2-0.9-2-2V241.44c0-1.1-0.9-2-2-2h-30.53c-1.1,0-2-0.9-2-2   v-34.02c0-1.1,0.9-2,2-2h30.53c1.1,0,2-0.9,2-2v-19.73c0-44.23,24.06-57.42,60.92-57.42c12.06,0,20.68,0.35,31.04,0.71   c1.08,0.04,1.94,0.92,1.94,2v34.37c0,1.15-0.95,2.06-2.1,2c-6.74-0.35-13.77-0.67-20.79-0.67c-12.8,0-22.5,3.88-22.5,22.12v16.62   c0,1.1,0.9,2,2,2h41.4c1.1,0,2,0.9,2,2v34.02c0,1.1-0.9,2-2,2h-41.4C966.16,239.44,965.27,240.33,965.27,241.44z M1039.64,123.04   h45.66c1.1,0,2,0.9,2,2V400.4c0,1.1-0.9,2-2,2h-45.66c-1.1,0-2-0.9-2-2V125.04C1037.64,123.93,1038.54,123.04,1039.64,123.04z"></path>
</g>
<g>
	<g>
		<path class="st1" d="M128.21,266.81l131.9-131.9c0.56-0.64,0.76-1.52,0.49-2.33l-7.78-23.8c-0.56-1.71-2.73-2.21-4.02-0.92    l-46.66,46.66V99.82c0-0.91-0.51-1.74-1.32-2.15l-22.33-11.33c-1.6-0.81-3.49,0.37-3.49,2.19v65.98l-38.67-38.67    c-0.64-0.64-1.59-0.87-2.46-0.59l-23.8,7.78c-1.71,0.56-2.21,2.73-0.92,4.02l46.66,46.66h-54.69c-0.91,0-1.74,0.51-2.15,1.32    l-11.33,22.33c-0.81,1.6,0.37,3.49,2.19,3.49h65.98l-38.67,38.67c-0.64,0.64-0.87,1.59-0.59,2.46l7.78,23.8    C124.86,267.44,126.91,267.94,128.21,266.81z"></path>
		<path class="st1" d="M287.32,173.71H241.5c-0.64,0-1.25,0.25-1.71,0.71l-64.09,64.09c-0.45,0.45-0.71,1.07-0.71,1.71v34.53    c0,0.91,0.51,1.74,1.32,2.15l22.33,11.33c1.6,0.81,3.49-0.37,3.49-2.19v-65.98l38.67,38.67c0.64,0.64,1.59,0.87,2.46,0.59    l23.8-7.78c1.71-0.56,2.21-2.73,0.92-4.02l-46.66-46.66h54.69c0.91,0,1.74-0.51,2.15-1.32l11.33-22.33    C290.33,175.59,289.14,173.71,287.32,173.71z"></path>
	</g>
</g>
<g>
	<path class="st0" d="M1109.05,390.4c0-6.72,5.34-12.06,12-12.06c6.6,0,12.06,5.1,12.06,12.06c0,6.66-5.52,12-12.06,12   C1114.33,402.4,1109.05,397.06,1109.05,390.4z M1130.41,390.4c0-5.04-4.2-9.6-9.36-9.6c-5.22,0-9.36,4.5-9.36,9.6   c0,5.04,4.2,9.54,9.36,9.54C1126.21,399.94,1130.41,395.56,1130.41,390.4z M1119.07,391.96v4.5h-2.7v-12.3h5.82   c2.64,0,4.02,1.8,4.02,3.84c0,1.8-1.08,2.94-2.4,3.42v0.06c0.18,0.24,0.3,0.42,0.66,1.2l2.1,3.78h-3.12l-2.16-4.02   c-0.18-0.42-0.3-0.48-0.78-0.48H1119.07z M1119.07,389.68h2.46c1.26,0,1.86-0.6,1.86-1.62c0-1.02-0.66-1.68-1.86-1.68h-2.46V389.68   z"></path>
</g>
</svg>