<svg width="321" height="320" viewBox="0 0 321 320" fill="none" xmlns="http://www.w3.org/2000/svg">
<g clip-path="url(#clip0)">
<path d="M298.213 107.104L298.213 107.11C300.625 128.425 289.937 151.675 278.316 173.304L278.315 173.307C266.726 195.024 254.331 214.679 236.493 228.267L236.49 228.269C218.774 241.858 195.619 249.075 175.659 245.206C155.64 241.274 138.455 225.959 124.675 209.489C110.987 192.972 100.68 175.491 95.9135 155.815C91.2064 136.157 91.8722 114.33 101.164 97.937C110.474 81.5141 128.447 70.298 146.661 59.7216L146.663 59.7201C164.983 49.0083 183.213 39.1852 202.971 37.2214L202.974 37.2211C222.785 35.1838 244.213 40.9935 262.578 53.6416C281.038 66.3727 295.944 85.9514 298.213 107.104Z" stroke="#41337A" stroke-width="2"/>
<path d="M172.143 232.344L172.137 232.342C152.952 228.421 135.772 212.577 120.247 196.357L120.245 196.354C104.637 180.14 91.0601 163.818 84.2925 144.484L84.2914 144.481C77.4881 125.252 77.7601 103.103 86.7516 86.8653C95.8147 70.5948 113.965 59.9896 132.178 52.6638C150.401 45.4323 168.501 41.415 186.941 42.83C205.351 44.2918 224.119 51.0347 235.727 63.7262C247.359 76.4432 252.029 95.219 256.078 114.05L256.079 114.053C260.216 133.011 263.601 151.624 259.728 169.34L259.728 169.343C255.904 187.125 244.808 204.1 228.633 216.483C212.357 228.928 191.145 236.342 172.143 232.344Z" stroke="#41337A" stroke-width="2"/>
<path d="M27.9158 136.8C37.044 116.082 58.9928 101.312 80.6338 88.7997C102.275 76.0817 123.813 65.6202 146.993 63.774C170.07 61.8253 194.89 68.9022 210.993 84.0817C227.095 99.4663 234.48 123.364 238.275 146.03C241.865 168.8 241.967 190.543 235.916 211.056C229.865 231.466 217.762 250.851 200.531 260.287C183.403 269.723 161.147 269.312 139.403 268.184C117.454 267.159 95.8133 265.415 76.9415 255.569C57.9671 245.825 41.6594 228.082 31.8133 205.928C21.9671 183.774 18.7876 157.415 27.9158 136.8Z" fill="#CFCCDD"/>
<ellipse rx="4.00719" ry="4.00874" transform="matrix(-0.838411 -0.545183 0.615369 -0.788335 28.3066 126.635)" fill="#41337A"/>
<ellipse rx="4.00719" ry="4.00874" transform="matrix(-0.838411 -0.545183 0.615369 -0.788335 46.434 103.371)" fill="#41337A"/>
<ellipse rx="4.0072" ry="4.00874" transform="matrix(-0.838412 -0.545182 0.61537 -0.788335 70.229 117.324)" fill="#41337A"/>
<ellipse rx="4.00719" ry="4.00874" transform="matrix(-0.838411 -0.545183 0.615369 -0.788335 64.5608 80.1052)" fill="#41337A"/>
<path d="M204.531 133.62V123.466C204.531 120.8 202.274 118.543 199.608 118.543C196.941 118.543 194.685 120.8 194.685 123.466V133.518H154.89V123.466C154.89 120.8 152.633 118.543 149.967 118.543C147.3 118.543 145.044 120.8 145.044 123.466V133.518H105.351V123.466C105.351 120.8 103.095 118.543 100.428 118.543C97.7617 118.543 95.5052 120.8 95.5052 123.466V133.518H94.6847C91.5052 133.518 88.5309 134.236 85.7617 135.364C78.0693 138.748 72.6335 146.543 72.6335 155.466V168.8V172.287V254.543C72.6335 263.569 78.0693 271.261 85.7617 274.646C88.5309 275.877 91.5052 276.492 94.6847 276.492H203.095C215.3 276.492 225.146 266.646 225.146 254.441V172.184V168.697V155.364C225.146 143.979 216.018 134.441 204.531 133.62Z" fill="#71669B"/>
<path d="M80.1207 165.005V247.261C80.1207 256.287 85.5566 263.979 93.2489 267.364C96.0181 268.595 98.9925 269.21 102.172 269.21H210.582C222.787 269.21 232.634 259.364 232.634 247.159V165.005H80.1207Z" fill="#F5F5F8"/>
<path d="M210.582 126.133H102.172C98.9925 126.133 96.0181 126.851 93.2489 127.979C85.5566 131.364 80.1207 139.159 80.1207 148.082V161.415H232.634V148.082C232.531 135.979 222.685 126.133 210.582 126.133Z" fill="#413B6D"/>
<path d="M232.634 161.518H80.1207V165.005H232.634V161.518Z" fill="#CFCCDD"/>
<path d="M107.813 151.979C112.345 151.979 116.018 148.306 116.018 143.774C116.018 139.243 112.345 135.569 107.813 135.569C103.281 135.569 99.6078 139.243 99.6078 143.774C99.6078 148.306 103.281 151.979 107.813 151.979Z" fill="#2D2455"/>
<path d="M157.454 151.979C161.986 151.979 165.659 148.306 165.659 143.774C165.659 139.243 161.986 135.569 157.454 135.569C152.922 135.569 149.249 139.243 149.249 143.774C149.249 148.306 152.922 151.979 157.454 151.979Z" fill="#2D2455"/>
<path d="M207.095 151.979C211.627 151.979 215.3 148.306 215.3 143.774C215.3 139.243 211.627 135.569 207.095 135.569C202.563 135.569 198.89 139.243 198.89 143.774C198.89 148.306 202.563 151.979 207.095 151.979Z" fill="#2D2455"/>
<path d="M107.813 138.133C105.146 138.133 102.89 135.877 102.89 133.21V140.8C102.89 143.467 105.146 145.723 107.813 145.723C110.48 145.723 112.736 143.467 112.736 140.8V133.21C112.736 135.979 110.582 138.133 107.813 138.133Z" fill="#A7B0B7"/>
<path d="M107.813 111.056C105.146 111.056 102.89 113.313 102.89 115.979V133.21C102.89 135.877 105.146 138.133 107.813 138.133C110.48 138.133 112.736 135.979 112.736 133.21V115.979C112.736 113.313 110.582 111.056 107.813 111.056Z" fill="#D6DEE6"/>
<path d="M157.454 138.133C154.787 138.133 152.531 135.877 152.531 133.21V140.8C152.531 143.467 154.787 145.723 157.454 145.723C160.121 145.723 162.377 143.467 162.377 140.8V133.21C162.377 135.979 160.223 138.133 157.454 138.133Z" fill="#A7B0B7"/>
<path d="M157.454 111.056C154.787 111.056 152.531 113.313 152.531 115.979V133.21C152.531 135.877 154.787 138.133 157.454 138.133C160.121 138.133 162.377 135.877 162.377 133.21V115.979C162.377 113.313 160.223 111.056 157.454 111.056Z" fill="#D6DEE6"/>
<path d="M207.095 138.133C204.428 138.133 202.172 135.877 202.172 133.21V140.8C202.172 143.467 204.428 145.723 207.095 145.723C209.762 145.723 212.018 143.467 212.018 140.8V133.21C212.018 135.979 209.864 138.133 207.095 138.133Z" fill="#A7B0B7"/>
<path d="M207.095 111.056C204.428 111.056 202.172 113.313 202.172 115.979V133.21C202.172 135.877 204.428 138.133 207.095 138.133C209.762 138.133 212.018 135.877 212.018 133.21V115.979C212.018 113.313 209.864 111.056 207.095 111.056Z" fill="#D6DEE6"/>
<path d="M117.556 186.543C117.556 193.723 113.044 195.159 108.941 195.159C104.839 195.159 100.326 193.518 100.326 186.543C100.326 179.569 105.351 177.928 108.941 177.928C112.531 177.928 117.556 179.877 117.556 186.543Z" fill="#06CD9E"/>
<path d="M166.069 186.543C166.069 193.723 161.557 195.159 157.454 195.159C153.351 195.159 148.839 193.518 148.839 186.543C148.839 179.569 153.864 177.928 157.454 177.928C161.044 177.928 166.069 179.877 166.069 186.543Z" fill="#06CD9E"/>
<path d="M215.71 186.543C215.71 193.723 211.198 195.159 207.095 195.159C202.992 195.159 198.48 193.518 198.48 186.543C198.48 179.569 203.505 177.928 207.095 177.928C210.685 177.928 215.71 179.877 215.71 186.543Z" fill="#06CD9E"/>
<path d="M117.556 215.364C117.556 222.543 113.044 223.979 108.941 223.979C104.839 223.979 100.326 222.338 100.326 215.364C100.326 208.389 105.351 206.748 108.941 206.748C112.531 206.748 117.556 208.8 117.556 215.364Z" fill="#06CD9E"/>
<path d="M166.069 215.364C166.069 222.543 161.557 223.979 157.454 223.979C153.351 223.979 148.839 222.338 148.839 215.364C148.839 208.389 153.864 206.748 157.454 206.748C161.044 206.748 166.069 208.8 166.069 215.364Z" fill="#06CD9E"/>
<path d="M215.71 215.364C215.71 222.543 211.198 223.979 207.095 223.979C202.992 223.979 198.48 222.338 198.48 215.364C198.48 208.389 203.505 206.748 207.095 206.748C210.685 206.748 215.71 208.8 215.71 215.364Z" fill="#06CD9E"/>
<path d="M117.556 244.287C117.556 251.466 113.044 252.902 108.941 252.902C104.839 252.902 100.326 251.261 100.326 244.287C100.326 237.313 105.351 235.672 108.941 235.672C112.531 235.672 117.556 237.62 117.556 244.287Z" fill="#06CD9E"/>
<path d="M166.069 244.287C166.069 251.466 161.557 252.902 157.454 252.902C153.351 252.902 148.839 251.261 148.839 244.287C148.839 237.313 153.864 235.672 157.454 235.672C161.044 235.672 166.069 237.62 166.069 244.287Z" fill="#06CD9E"/>
<path d="M215.71 244.287C215.71 251.466 211.198 252.902 207.095 252.902C202.992 252.902 198.48 251.261 198.48 244.287C198.48 237.313 203.505 235.672 207.095 235.672C210.685 235.672 215.71 237.62 215.71 244.287Z" fill="#06CD9E"/>
<path opacity="0.05" d="M80.1207 148.082V161.415V165.005V247.261C80.1207 256.287 85.5566 263.979 93.2489 267.364V165.005V161.518V127.979C85.5566 131.364 80.1207 139.159 80.1207 148.082Z" fill="#2D2455"/>
<path d="M208.018 117.312C209.208 117.312 210.172 116.348 210.172 115.159C210.172 113.969 209.208 113.005 208.018 113.005C206.829 113.005 205.864 113.969 205.864 115.159C205.864 116.348 206.829 117.312 208.018 117.312Z" fill="white"/>
<path d="M158.48 117.312C159.669 117.312 160.633 116.348 160.633 115.159C160.633 113.969 159.669 113.005 158.48 113.005C157.29 113.005 156.326 113.969 156.326 115.159C156.326 116.348 157.29 117.312 158.48 117.312Z" fill="white"/>
<path d="M108.941 117.312C110.131 117.312 111.095 116.348 111.095 115.159C111.095 113.969 110.131 113.005 108.941 113.005C107.752 113.005 106.787 113.969 106.787 115.159C106.787 116.348 107.752 117.312 108.941 117.312Z" fill="white"/>
</g>
<defs>
<clipPath id="clip0">
<rect width="320" height="320" fill="white" transform="translate(0.0800781)"/>
</clipPath>
</defs>
</svg>
