<svg width="321" height="320" viewBox="0 0 321 320" fill="none" xmlns="http://www.w3.org/2000/svg">
<g clip-path="url(#clip0)">
<path d="M248.297 116.165L248.298 116.171C250.774 138.06 239.799 161.934 227.87 184.134L227.869 184.137C215.972 206.43 203.247 226.611 184.931 240.562L184.929 240.564C166.739 254.517 142.963 261.927 122.465 257.954C101.907 253.916 84.262 238.19 70.1157 221.282C56.0633 204.326 45.481 186.378 40.5868 166.175C35.754 145.993 36.4366 123.579 45.9796 106.744C55.5396 89.8789 73.9958 78.3625 92.6908 67.5065L92.6933 67.505C111.498 56.5096 130.216 46.4233 150.504 44.4068L150.507 44.4065C170.849 42.3146 192.851 48.2801 211.706 61.2664C230.66 74.3375 245.967 94.4411 248.297 116.165Z" stroke="#82E5CE" stroke-width="2"/>
<path d="M118.856 244.75L118.851 244.749C99.1469 240.722 81.5068 224.452 65.5709 207.802L65.5689 207.8C49.5471 191.156 35.6071 174.397 28.6582 154.546L28.6571 154.543C21.6717 134.799 21.9502 112.055 31.1843 95.3796C40.4919 78.6699 59.1303 67.7808 77.8269 60.2604C96.5351 52.8363 115.12 48.7114 134.053 50.1643C152.955 51.6651 172.228 58.5883 184.15 71.6229C196.095 84.683 200.89 103.963 205.047 123.292L205.047 123.295C209.294 142.756 212.77 161.866 208.793 180.058L208.793 180.061C204.867 198.32 193.473 215.75 176.865 228.465C160.154 241.242 138.372 248.857 118.856 244.75Z" stroke="#82E5CE" stroke-width="2"/>
<path d="M255.686 67.6643C272.962 82.0955 280.788 107.096 286.784 131.182C292.78 155.369 296.845 178.642 292.068 201.305C287.495 223.866 273.978 245.411 254.974 256.488C235.868 267.566 211.071 267.972 188.51 265.228C165.847 262.383 145.115 256.387 127.33 245.005C109.647 233.521 94.5041 216.65 90.3373 197.748C86.1706 178.845 92.6748 157.808 99.7887 137.483C106.903 116.954 114.525 96.8315 129.057 81.5873C143.59 66.0383 165.034 55.469 188.815 52.2169C212.697 48.9649 238.714 53.2332 255.686 67.6643Z" fill="#C0F2E6"/>
<path d="M252.406 101.847C251.695 101.452 250.983 101.057 250.351 100.662C250.083 100.518 249.819 100.373 249.558 100.229C248.823 99.8251 248.107 99.432 247.349 99.082C244.03 97.4226 240.553 96.0003 236.918 94.894C230.36 92.8396 223.327 91.7333 216.058 91.7333C187.416 91.7333 162.982 109.106 152.047 133.689H145.291L94.5281 133.612H83.3076H80.2258H76.1959H66.3977C63.7901 133.612 61.7356 135.667 61.7356 138.275V153.604C61.7356 154.394 61.8936 155.105 62.2887 155.737C62.9891 157.138 64.5322 158.232 66.3145 158.265C66.3421 158.266 66.3699 158.266 66.3977 158.266H138.169L82.8335 158.267C80.3049 158.267 78.1714 160.321 78.1714 162.929V178.258C78.1714 179.048 78.3295 179.76 78.7246 180.392C79.3867 181.65 80.6036 182.575 82.0034 182.842H66.3977C65.0192 182.842 63.7771 183.433 62.9472 184.373C62.1979 185.196 61.7356 186.29 61.7356 187.504V202.833C61.7356 203.623 61.8936 204.335 62.2887 204.967C62.9951 206.458 64.5592 207.481 66.3613 207.495L66.3977 207.495H82.5888C80.0983 207.541 78.0133 209.579 78.0133 212.156V227.486C78.0133 228.276 78.1713 228.987 78.5664 229.619C79.3566 231.121 80.9369 232.148 82.6753 232.148H203.551C205.125 232.253 206.713 232.307 208.314 232.307C209.861 232.307 211.397 232.257 212.92 232.158C213.96 232.204 215.006 232.227 216.058 232.227C217.186 232.227 218.307 232.201 219.422 232.148H221.51C222.058 232.148 222.577 232.055 223.057 231.883C258.568 228.37 286.305 198.416 286.305 161.98C286.305 136.457 272.714 114.174 252.406 101.848L252.406 101.847Z" fill="#2E977E"/>
<g clip-path="url(#clip1)">
<path d="M213.054 133.613H74.2199C71.6123 133.613 69.5579 135.668 69.5579 138.275V153.605C69.5579 154.395 69.7159 155.106 70.111 155.738C70.9012 157.239 72.4815 158.267 74.2199 158.267H213.054C214.872 158.267 216.373 157.239 217.163 155.738C217.479 155.106 217.716 154.395 217.716 153.605V138.275C217.716 135.668 215.583 133.613 213.054 133.613Z" fill="#FFCA3A"/>
<path d="M74.22 158.267H213.054C214.872 158.267 216.373 157.239 217.163 155.738H70.1111C70.8222 157.16 72.4026 158.267 74.22 158.267Z" fill="#F9BE2B"/>
<path d="M88.0482 133.613H84.0183V155.738H88.0482V133.613Z" fill="white"/>
<path d="M102.35 133.613H91.1298V155.738H102.35V133.613Z" fill="white"/>
<path d="M229.569 158.267H90.6557C88.1271 158.267 85.9937 160.321 85.9937 162.929V178.259C85.9937 179.049 86.1517 179.76 86.5468 180.392C87.337 181.893 88.9173 182.921 90.6557 182.921H229.49C231.308 182.921 232.809 181.893 233.599 180.392C233.915 179.76 234.152 179.049 234.152 178.259V162.85C234.231 160.321 232.098 158.267 229.569 158.267Z" fill="#FFCA3A"/>
<path d="M90.6557 182.842H229.49C231.308 182.842 232.809 181.815 233.599 180.313H86.5468C87.3369 181.815 88.9173 182.842 90.6557 182.842Z" fill="#F9BE2B"/>
<path d="M90.6557 158.267H229.49C231.308 158.267 232.809 159.294 233.599 160.796H86.5468C87.3369 159.294 88.9173 158.267 90.6557 158.267Z" fill="#F9BE2B"/>
<path d="M104.563 160.716H100.533V180.313H104.563V160.716Z" fill="white"/>
<path d="M118.865 160.716H107.645V180.313H118.865V160.716Z" fill="white"/>
<path d="M229.411 207.495H90.4975C87.9689 207.495 85.8354 209.549 85.8354 212.157V227.486C85.8354 228.277 85.9935 228.988 86.3886 229.62C87.1788 231.121 88.7591 232.148 90.4975 232.148H229.332C231.149 232.148 232.651 231.121 233.441 229.62C233.757 228.988 233.994 228.277 233.994 227.486V212.157C233.994 209.549 231.94 207.495 229.411 207.495Z" fill="#FFCA3A"/>
<path d="M90.4976 232.149H229.332C231.149 232.149 232.651 231.122 233.441 229.62H86.3887C87.1789 231.122 88.7592 232.149 90.4976 232.149Z" fill="#F9BE2B"/>
<path d="M90.4976 207.495H229.332C231.149 207.495 232.651 208.522 233.441 210.024H86.3887C87.1789 208.522 88.7592 207.495 90.4976 207.495Z" fill="#F9BE2B"/>
<path d="M104.405 210.023H100.375V229.62H104.405V210.023Z" fill="white"/>
<path d="M118.707 210.023H107.486V229.62H118.707V210.023Z" fill="white"/>
<path d="M213.054 182.842H74.2199C71.6913 182.842 69.5579 184.896 69.5579 187.504V202.833C69.5579 203.624 69.7159 204.335 70.111 204.967C70.9012 206.468 72.4815 207.495 74.2199 207.495H213.054C214.872 207.495 216.373 206.468 217.163 204.967C217.479 204.335 217.716 203.624 217.716 202.833V187.504C217.716 184.975 215.583 182.842 213.054 182.842Z" fill="#FFCA3A"/>
<path d="M74.22 207.496H213.054C214.872 207.496 216.373 206.468 217.163 204.967H70.1111C70.8222 206.468 72.4026 207.496 74.22 207.496Z" fill="#F9BE2B"/>
<path d="M74.22 182.842H213.054C214.872 182.842 216.373 183.869 217.163 185.371H70.1111C70.8222 183.869 72.4026 182.842 74.22 182.842Z" fill="#F9BE2B"/>
<path d="M88.0482 185.37H84.0183V204.966H88.0482V185.37Z" fill="white"/>
<path d="M102.35 185.37H91.1298V204.966H102.35V185.37Z" fill="white"/>
<path opacity="0.3" d="M151.973 133.456C148.102 142.148 145.889 151.867 145.889 162.06C145.889 200.858 177.338 232.307 216.136 232.307C254.934 232.307 286.383 200.858 286.383 162.06C286.383 151.867 284.249 142.227 280.298 133.456H151.973Z" fill="#252B2F"/>
<path d="M260.228 101.848C259.517 101.453 258.806 101.058 258.174 100.663C257.146 100.11 256.198 99.5566 255.171 99.0825C251.852 97.4231 248.376 96.0008 244.741 94.8946C238.182 92.8401 231.15 91.7338 223.88 91.7338C185.082 91.7338 153.633 123.183 153.633 161.981C153.633 200.779 185.082 232.228 223.88 232.228C262.678 232.228 294.127 200.779 294.127 161.981C294.127 136.458 280.536 114.175 260.228 101.848Z" fill="#FFCA3A"/>
<path d="M249.798 114.096L255.092 99.0827C251.773 97.4233 248.297 96.001 244.662 94.8948L239.21 110.382L249.798 114.096Z" fill="white"/>
<path d="M253.986 119.47L260.228 101.849C259.517 101.454 258.806 101.059 258.174 100.664L251.773 118.68L253.986 119.47Z" fill="white"/>
<path d="M197.962 210.023L192.668 225.037C195.987 226.696 199.464 228.118 203.098 229.225L208.551 213.737L197.962 210.023Z" fill="white"/>
<path d="M193.853 204.572L187.611 222.193C188.322 222.588 189.033 222.983 189.665 223.378L196.066 205.362L193.853 204.572Z" fill="white"/>
<path d="M223.88 217.609C254.603 217.609 279.509 192.704 279.509 161.981C279.509 131.258 254.603 106.352 223.88 106.352C193.157 106.352 168.251 131.258 168.251 161.981C168.251 192.704 193.157 217.609 223.88 217.609Z" fill="#FFA73E"/>
<path d="M221.351 189.717V194.853C221.351 195.801 220.561 196.591 219.613 196.591C218.665 196.591 217.875 195.801 217.875 194.853V189.717C209.894 189.242 203.572 185.608 200.175 179.997C198.12 176.521 200.491 172.096 204.442 171.622C206.812 171.384 209.104 172.649 210.131 174.782C211.553 177.785 214.319 179.918 217.796 180.472V167.197H217.717C209.341 166.011 199.147 163.957 199.147 152.894C199.147 143.728 206.575 137.565 217.875 137.012V132.034C217.875 131.085 218.665 130.295 219.613 130.295C220.561 130.295 221.351 131.085 221.351 132.034V137.012C228.463 137.407 234.231 140.647 237.392 145.783C239.526 149.259 237.313 153.842 233.283 154.238C230.913 154.475 228.7 153.289 227.673 151.156C226.488 148.627 224.275 146.889 221.43 146.336V157.872L222.142 158.03C230.913 159.295 241.501 161.428 241.501 172.807C241.422 182.447 233.441 189.163 221.351 189.717ZM217.875 157.24V146.178C213.687 146.494 210.921 148.706 210.921 152.025C210.921 155.107 213.845 156.45 217.875 157.24ZM229.648 174.071C229.648 170.041 226.014 168.698 221.351 167.829V180.551C226.33 180.155 229.648 177.627 229.648 174.071Z" fill="#FC8E17"/>
<path d="M224.907 189.717V194.853C224.907 195.801 224.117 196.591 223.169 196.591C222.22 196.591 221.43 195.801 221.43 194.853V189.717C213.449 189.242 207.128 185.608 203.73 179.997C201.676 176.521 204.046 172.096 207.997 171.622C210.368 171.384 212.659 172.649 213.687 174.782C215.109 177.785 217.874 179.918 221.351 180.472V167.197H221.272C212.817 166.011 202.624 163.957 202.624 152.894C202.624 143.728 210.052 137.565 221.351 137.012V132.034C221.351 131.085 222.141 130.295 223.09 130.295C224.038 130.295 224.828 131.085 224.828 132.034V137.012C231.94 137.407 237.708 140.647 240.869 145.783C243.002 149.259 240.79 153.842 236.76 154.238C234.389 154.475 232.177 153.289 231.149 151.156C229.964 148.627 227.752 146.889 224.907 146.336V157.872L225.618 158.03C234.389 159.295 244.978 161.428 244.978 172.807C245.057 182.447 236.997 189.163 224.907 189.717ZM221.43 157.24V146.178C217.242 146.494 214.477 148.706 214.477 152.025C214.477 155.107 217.4 156.45 221.43 157.24ZM233.204 174.071C233.204 170.041 229.569 168.698 224.907 167.829V180.551C229.964 180.155 233.204 177.627 233.204 174.071Z" fill="#FFE49C"/>
<path d="M239.658 148.172C240.492 147.339 240.016 145.512 238.597 144.093C237.177 142.674 235.351 142.198 234.518 143.031C233.685 143.865 234.16 145.691 235.58 147.11C236.999 148.53 238.825 149.005 239.658 148.172Z" fill="white"/>
<path d="M212.445 177.842C213.248 176.979 212.809 175.268 211.467 174.02C210.124 172.772 208.386 172.46 207.583 173.323C206.781 174.187 207.219 175.898 208.562 177.146C209.904 178.394 211.643 178.705 212.445 177.842Z" fill="white"/>
</g>
<ellipse rx="3.81964" ry="3.82111" transform="matrix(0.511263 0.859516 -0.900357 0.435326 165.925 80.7836)" fill="#06CD9E"/>
<ellipse rx="3.81964" ry="3.82111" transform="matrix(0.511261 0.859517 -0.900356 0.435328 140.626 93.045)" fill="#06CD9E"/>
<ellipse rx="3.81964" ry="3.82112" transform="matrix(0.51126 0.859518 -0.900355 0.435329 126.155 71.0909)" fill="#06CD9E"/>
<ellipse rx="3.81964" ry="3.82111" transform="matrix(0.51126 0.859517 -0.900356 0.435329 115.326 105.305)" fill="#06CD9E"/>
</g>
<defs>
<clipPath id="clip0">
<rect width="320" height="320" fill="white" transform="translate(0.580078)"/>
</clipPath>
<clipPath id="clip1">
<rect width="224.569" height="140.573" fill="white" transform="translate(69.5579 91.7333)"/>
</clipPath>
</defs>
</svg>
