<svg width="321" height="305" viewBox="0 0 321 305" fill="none" xmlns="http://www.w3.org/2000/svg">
<g clip-path="url(#clip0)">
<path d="M235.246 133.771L235.247 133.777C237.659 155.092 226.971 178.342 215.35 199.971L215.348 199.973C203.759 221.691 191.364 241.346 173.526 254.934L173.524 254.936C155.807 268.525 132.652 275.741 112.692 271.873C92.6732 267.94 75.4888 252.626 61.7086 236.155C48.0205 219.639 37.7137 202.157 32.9471 182.481C28.24 162.824 28.9058 140.997 38.198 124.604C47.5073 108.181 65.4807 96.9647 83.6942 86.3883L83.6967 86.3869C102.016 75.6751 120.246 65.8519 140.005 63.8881L140.008 63.8878C159.819 61.8505 181.247 67.6602 199.611 80.3083C218.072 93.0394 232.977 112.618 235.246 133.771Z" stroke="#06CD9E" stroke-width="2"/>
<path d="M109.177 259.01L109.171 259.009C89.9852 255.088 72.8057 239.244 57.2804 223.023L57.2784 223.021C41.6705 206.807 28.0937 190.484 21.3261 171.151L21.3251 171.148C14.5217 151.918 14.7938 129.769 23.7853 113.532C32.8483 97.2615 50.9986 86.6563 69.2112 79.3305C87.4343 72.099 105.535 68.0818 123.974 69.4968C142.385 70.9585 161.152 77.7015 172.761 90.393C184.392 103.11 189.062 121.886 193.112 140.717L193.113 140.72C197.25 159.678 200.634 178.29 196.762 196.007L196.761 196.01C192.938 213.791 181.842 230.766 165.667 243.15C149.391 255.595 128.179 263.009 109.177 259.01Z" stroke="#06CD9E" stroke-width="2"/>
<path d="M55.154 161.403C58.3732 141.352 74.1931 123.601 90.1051 107.873C106.109 91.961 122.481 78.0726 142.256 71.2663C161.939 64.4601 184.933 64.9199 202.316 74.5775C219.7 84.235 231.565 103.366 239.843 122.221C248.121 141.169 253.088 160.024 252.444 179.155C251.708 198.286 245.545 217.785 232.761 229.834C219.976 241.883 200.661 246.482 181.53 250.437C162.215 254.484 143.084 257.795 124.504 253.564C105.833 249.333 87.7137 237.56 74.1931 220.636C60.4886 203.529 51.8428 181.362 55.154 161.403Z" fill="#C0F2E6"/>
<path d="M185.092 43.2418C186.602 44.1558 187.676 45.7526 186.896 47.3352C186.116 48.9179 184.333 50.0995 182.823 49.1856C181.313 48.2717 180.24 46.6749 181.02 45.0922C181.8 43.5095 183.582 42.3279 185.092 43.2418Z" fill="#06CD9E"/>
<path d="M205.22 55.3983C206.73 56.3122 207.804 57.909 207.023 59.4917C206.243 61.0743 204.461 62.256 202.951 61.342C201.441 60.4281 200.367 58.8313 201.147 57.2486C201.928 55.6659 203.71 54.4843 205.22 55.3983Z" fill="#06CD9E"/>
<path d="M196.416 75.5518C197.927 76.4658 199 78.0626 198.22 79.6452C197.44 81.2279 195.658 82.4095 194.148 81.4956C192.637 80.5816 191.564 78.9849 192.344 77.4022C193.124 75.8195 194.906 74.6379 196.416 75.5518Z" fill="#06CD9E"/>
<path d="M227.365 71.6632C226.578 73.2891 224.835 74.1853 223.147 73.5411C221.46 72.8969 220.467 70.9562 221.254 69.3304C222.041 67.7045 223.784 66.8083 225.472 67.4525C227.159 68.0967 228.152 70.0374 227.365 71.6632Z" fill="#06CD9E"/>
<path d="M297.548 215.753H285.87V105.239C285.87 100.585 282.147 96.8619 277.493 96.8619H88.1054C83.4511 96.8619 79.7277 100.585 79.7277 105.239V215.753H72.3654H68.2189C66.1879 215.753 64.5801 217.361 64.5801 219.392V222.946C64.5801 227.938 68.642 232 73.6348 232H161.474H292.133C297.125 232 301.187 227.938 301.187 222.946V219.392C301.187 217.361 299.579 215.753 297.548 215.753Z" fill="#2E977E"/>
<path d="M282.486 225.231H93.0984C88.4441 225.231 84.7207 221.507 84.7207 216.853V101.177C84.7207 96.5234 88.4441 92.8001 93.0984 92.8001H282.401C287.055 92.8001 290.779 96.5234 290.779 101.177V216.769C290.863 221.423 287.055 225.231 282.486 225.231Z" fill="#82CBE5"/>
<path d="M281.893 219.815H93.6906C91.9135 219.815 90.3903 218.377 90.3903 216.515V101.432C90.3903 99.6546 91.8289 98.1315 93.6906 98.1315H281.809C283.586 98.1315 285.109 99.57 285.109 101.432V216.6C285.109 218.377 283.67 219.815 281.893 219.815Z" fill="#C0F2E6"/>
<path d="M187.877 105.155C188.718 105.155 189.4 104.473 189.4 103.631C189.4 102.79 188.718 102.108 187.877 102.108C187.035 102.108 186.353 102.79 186.353 103.631C186.353 104.473 187.035 105.155 187.877 105.155Z" fill="#188BAA"/>
<path d="M242.929 214.568C243.267 204.413 222.788 197.305 204.171 193.244L204.086 193.159C204.086 193.159 204.086 193.074 204.002 193.074C202.648 190.197 200.701 186.305 199.601 184.02C204.509 182.158 206.033 177.758 208.402 172.935C209.672 170.227 210.941 167.35 211.872 164.134C212.21 164.304 212.633 164.388 213.056 164.388C215.003 164.473 216.526 162.95 216.611 161.088C216.695 159.226 215.172 157.619 213.31 157.534C214.58 156.688 215.68 152.795 216.357 150.426C217.288 147.126 213.903 145.433 213.141 144.672C212.379 143.995 217.203 137.648 215.172 133.333C213.226 128.932 207.133 130.202 206.456 129.948C205.779 129.694 211.364 126.563 207.894 122.586C202.309 116.07 196.978 122.755 195.624 122.84C194.355 122.84 194.524 118.27 189.108 118.101C183.269 117.932 182.761 125.886 182.423 126.732C182.169 127.494 176.245 123.009 172.183 128.255C167.614 134.263 173.114 141.625 174.214 144.079C175.23 146.533 175.145 146.279 174.045 148.31C172.945 150.341 172.606 154.234 173.622 156.011C173.707 156.18 173.791 156.349 173.876 156.434C172.268 156.688 170.999 158.042 170.914 159.734C170.829 161.68 172.353 163.203 174.299 163.288C174.722 163.288 175.061 163.203 175.484 163.119C176.245 166.25 177.261 169.212 178.192 172.004C179.969 177.166 181.153 181.651 186.146 183.851L183.184 189.436C183.184 189.436 141.719 199.929 141.38 211.522C141.38 212.199 141.38 212.96 141.55 213.637C141.973 216.43 144.427 218.545 147.304 218.63C156.274 219.053 169.391 218.545 188.093 215.245C207.133 211.86 222.873 215.245 234.466 220.068C238.359 221.507 242.759 218.799 242.929 214.568Z" fill="#35CBA8"/>
<path d="M207.894 193.075C205.863 188.844 202.563 182.074 202.563 182.074L190.97 181.566L186.992 189.182C186.992 189.182 186.146 189.859 185.638 190.79C183.354 194.936 180.646 208.052 195.962 208.476H196.047H196.132C211.449 209.152 209.925 197.306 207.894 193.075Z" fill="white"/>
<path opacity="0.2" d="M190.377 182.836C190.377 182.836 190.123 189.69 207.979 193.244L203.663 184.359L202.563 182.074L190.97 181.566L190.377 182.836Z" fill="#293136"/>
<path d="M217.372 154.234C217.119 161.342 214.834 167.688 212.295 172.935C209.079 179.535 207.302 185.289 196.809 184.951C185.723 184.612 184.454 178.858 182 171.835C180.138 166.335 177.938 160.073 178.192 153.049C178.699 136.717 187.923 123.771 198.671 124.109C209.587 124.363 217.88 137.902 217.372 154.234Z" fill="white"/>
<path d="M217.034 164.304C218.95 164.304 220.503 162.751 220.503 160.834C220.503 158.918 218.95 157.365 217.034 157.365C215.117 157.365 213.564 158.918 213.564 160.834C213.564 162.751 215.117 164.304 217.034 164.304Z" fill="white"/>
<path d="M178.276 163.119C180.192 163.119 181.746 161.566 181.746 159.65C181.746 157.733 180.192 156.18 178.276 156.18C176.36 156.18 174.807 157.733 174.807 159.65C174.807 161.566 176.36 163.119 178.276 163.119Z" fill="white"/>
<path d="M207.895 193.244C199.432 213.891 188.685 202.298 187.839 201.283C182.508 195.021 186.993 189.182 186.993 189.182C186.993 189.182 145.527 199.675 145.104 211.268C145.104 211.945 145.104 212.706 145.273 213.383C145.696 216.176 148.15 218.291 151.028 218.376C159.998 218.799 173.114 218.291 191.816 214.991C210.856 211.606 226.596 214.991 238.19 219.814C242.083 221.422 246.568 218.714 246.652 214.568V214.483C246.991 204.498 226.512 197.39 207.895 193.244Z" fill="#058AB8"/>
<path d="M178.192 202.214C178.615 202.637 179.884 203.06 180.477 202.891C180.646 202.891 180.731 202.721 180.731 202.637C180.9 201.96 180.646 200.098 180.138 199.929C179.63 199.76 178.446 201.114 178.192 201.791C178.023 201.96 178.023 202.129 178.192 202.214Z" fill="#82CBE5"/>
<path d="M162.706 207.036C163.637 206.698 165.16 205.175 165.244 204.244C165.244 203.99 165.16 203.821 164.991 203.652C164.144 202.89 161.267 201.959 160.675 202.636C160.082 203.229 161.098 205.936 161.86 206.783C162.113 207.036 162.452 207.206 162.706 207.036Z" fill="#82CBE5"/>
<path d="M214.157 204.16C215.088 203.821 216.611 202.298 216.696 201.367C216.696 201.113 216.611 200.944 216.442 200.775C215.595 200.013 212.718 199.082 212.126 199.759C211.534 200.352 212.549 203.06 213.311 203.906C213.565 204.16 213.903 204.244 214.157 204.16Z" fill="#82CBE5"/>
<path d="M231.589 207.545C232.012 207.375 232.774 206.698 232.858 206.191C232.858 206.106 232.858 205.937 232.774 205.937C232.351 205.598 230.997 205.091 230.658 205.429C230.404 205.683 230.912 207.037 231.251 207.46C231.251 207.545 231.42 207.629 231.589 207.545Z" fill="#82CBE5"/>
<path d="M177.515 158.042C177.515 158.042 176.161 160.072 178.276 161.342" stroke="#354864" stroke-width="0.5138" stroke-miterlimit="10" stroke-linecap="round" stroke-linejoin="round"/>
<path d="M217.88 159.396C217.88 159.396 219.149 161.511 216.949 162.696" stroke="#354864" stroke-width="0.5138" stroke-miterlimit="10" stroke-linecap="round" stroke-linejoin="round"/>
<path d="M177.515 155.842C176.499 154.065 176.838 150.172 177.938 148.141C179.038 146.11 179.122 146.364 178.107 143.91C177.091 141.456 171.506 134.094 176.076 128.086C180.138 122.84 186.062 127.325 186.315 126.563C186.569 125.802 187.077 117.763 193.001 117.932C198.417 118.101 198.332 122.671 199.517 122.671C200.786 122.671 206.202 115.986 211.787 122.417C215.257 126.394 209.672 129.525 210.349 129.779C211.025 130.033 217.034 128.763 219.065 133.164C221.011 137.564 216.188 143.826 217.034 144.503C217.795 145.18 221.18 146.957 220.249 150.257C219.319 153.557 217.541 159.734 215.764 156.773C213.987 153.811 215.511 143.91 206.287 142.133C197.063 140.356 186.315 140.779 183.692 145.264C180.984 149.834 179.884 159.819 177.515 155.842Z" fill="#354864"/>
<path d="M190.111 158.242C190.136 157.448 189.777 156.792 189.31 156.777C188.843 156.762 188.444 157.394 188.419 158.188C188.394 158.982 188.752 159.638 189.219 159.653C189.686 159.668 190.085 159.036 190.111 158.242Z" fill="#354864"/>
<path d="M205.079 158.673C205.104 157.879 204.746 157.223 204.278 157.208C203.811 157.193 203.412 157.825 203.387 158.619C203.362 159.413 203.72 160.069 204.187 160.084C204.654 160.098 205.054 159.467 205.079 158.673Z" fill="#354864"/>
<path d="M187.585 155.249C187.5 155.249 187.415 155.249 187.415 155.165C187.331 155.08 187.331 154.826 187.5 154.742C188.346 154.065 189.108 153.811 189.87 153.895C190.885 154.065 191.477 154.826 191.562 154.911C191.647 154.996 191.647 155.249 191.477 155.334C191.393 155.419 191.139 155.419 191.054 155.249C191.054 155.249 190.547 154.572 189.785 154.488C189.193 154.403 188.516 154.657 187.839 155.165C187.669 155.249 187.669 155.249 187.585 155.249Z" fill="#354864" stroke="#354864" stroke-width="0.6851" stroke-miterlimit="10"/>
<path d="M202.479 155.672C202.394 155.672 202.309 155.672 202.309 155.588C202.225 155.503 202.225 155.249 202.394 155.165C203.24 154.488 204.002 154.234 204.763 154.318C205.779 154.488 206.371 155.249 206.456 155.334C206.541 155.418 206.541 155.672 206.371 155.757C206.287 155.841 206.033 155.841 205.948 155.672C205.948 155.672 205.44 154.995 204.679 154.911C204.086 154.826 203.409 155.08 202.732 155.588C202.648 155.672 202.563 155.672 202.479 155.672Z" fill="#354864" stroke="#354864" stroke-width="0.6851" stroke-miterlimit="10"/>
<path opacity="0.2" d="M183.608 148.48C183.608 148.48 190.885 147.718 194.355 144.925C194.355 144.925 211.703 154.741 213.903 149.749L215.341 145.264L203.325 140.779L190.631 139.425L185.892 141.795L183.608 148.48Z" fill="#293136"/>
<path d="M181.323 148.734C181.323 148.734 185.554 149.157 194.524 143.826C194.524 143.826 209.841 151.864 214.918 147.633L217.034 141.372L194.778 133.079L185.3 135.702L181.323 148.734Z" fill="#354864"/>
<path d="M196.639 163.881L195.201 169.381C195.032 170.058 195.539 170.819 196.301 170.819L198.501 170.904" stroke="#354864" stroke-width="0.5138" stroke-miterlimit="10" stroke-linecap="round" stroke-linejoin="round"/>
<path d="M192.07 173.189C192.07 173.189 193.255 176.404 196.893 176.574C201.294 176.743 202.225 173.527 202.225 173.527" stroke="#354864" stroke-width="0.5138" stroke-miterlimit="10" stroke-linecap="round" stroke-linejoin="round"/>
<path opacity="0.5" d="M210.264 127.832C210.095 127.748 210.01 127.663 210.095 127.494C210.095 127.409 211.026 124.955 208.995 123.093C206.541 120.724 204.425 122.078 204.34 122.078C204.256 122.163 204.086 122.078 204.002 121.993C203.917 121.909 204.002 121.74 204.086 121.655C204.086 121.655 206.541 120.132 209.248 122.67C211.533 124.786 210.433 127.494 210.433 127.578C210.433 127.748 210.349 127.832 210.264 127.832Z" fill="white"/>
<path opacity="0.5" d="M217.626 138.325H217.541C217.457 138.24 217.372 138.156 217.457 137.987C217.541 137.902 218.642 135.617 216.864 133.502C214.664 130.879 212.464 131.979 212.379 131.979C212.295 132.063 212.126 131.979 212.126 131.894C212.041 131.809 212.126 131.64 212.21 131.64C212.21 131.64 214.834 130.371 217.203 133.248C219.234 135.617 217.88 138.24 217.795 138.24C217.795 138.325 217.711 138.325 217.626 138.325Z" fill="white"/>
<path opacity="0.5" d="M197.401 124.109C197.316 124.109 197.232 124.024 197.147 123.94C197.147 123.855 196.809 121.317 194.101 120.555C190.8 119.709 189.616 121.74 189.531 121.909C189.446 121.994 189.362 122.078 189.193 121.994C189.108 121.909 189.023 121.824 189.108 121.655C189.108 121.655 190.547 119.201 194.101 120.132C197.063 120.893 197.486 123.855 197.486 123.855C197.655 123.94 197.57 124.024 197.401 124.109C197.486 124.109 197.401 124.109 197.401 124.109Z" fill="white"/>
<path d="M122.656 172.766C122.064 173.866 120.625 174.204 119.61 173.612C118.594 173.02 118.171 171.581 118.764 170.566L129.426 152.119C128.411 151.019 127.311 149.919 126.126 148.818L122.487 155.08C121.895 156.18 120.456 156.519 119.441 155.927C118.341 155.334 118.002 153.896 118.594 152.88L122.572 145.941C117.156 141.88 111.148 138.495 107.509 136.633C105.647 135.618 103.362 136.295 102.262 138.072C100.654 140.61 98.3694 144.503 96.1691 148.818L102.008 152.203C103.108 152.796 103.447 154.234 102.854 155.25C102.262 156.35 100.823 156.688 99.808 156.096L94.3074 152.88C93.3766 155.08 92.5303 157.365 91.8533 159.565L105.478 167.435C106.578 168.027 106.916 169.466 106.324 170.481C105.732 171.581 104.293 171.92 103.278 171.327L90.9225 164.219C90.584 166.419 90.6686 168.45 91.0917 170.227C93.5458 179.197 109.878 190.198 117.325 194.767C119.271 195.952 121.895 195.275 122.995 193.244C127.141 185.628 135.858 167.858 133.404 158.888C133.15 157.957 132.811 157.111 132.303 156.18L122.656 172.766ZM109.878 182.497C108.186 182.92 106.409 181.905 105.985 180.212C105.562 178.52 106.578 176.743 108.27 176.32C109.963 175.897 111.74 176.912 112.163 178.605C112.586 180.297 111.571 182.074 109.878 182.497ZM109.624 148.311C109.286 147.126 110.047 145.857 111.232 145.518C112.417 145.18 113.686 145.941 114.025 147.126C114.363 148.311 113.602 149.58 112.417 149.919C111.148 150.172 109.963 149.495 109.624 148.311Z" fill="#2E977E"/>
<path d="M129.003 225.992C128.749 226.076 128.495 225.907 128.411 225.653L109.455 156.095C109.37 155.842 109.54 155.588 109.794 155.503C110.047 155.418 110.301 155.588 110.386 155.842L129.342 225.399C129.426 225.653 129.257 225.907 129.003 225.992Z" fill="#B3DA44"/>
<path d="M144.235 187.574C143.558 187.912 142.797 187.658 142.458 187.066C142.12 186.389 142.373 185.628 142.966 185.289L145.843 183.681C144.743 181.904 143.643 180.297 142.797 179.281C142.204 178.52 141.104 178.181 140.173 178.52C138.311 179.196 135.096 180.55 132.388 182.243L136.111 189.097C136.45 189.774 136.196 190.536 135.604 190.874C134.927 191.213 134.165 190.959 133.826 190.366L130.188 183.766C129.003 184.697 128.157 185.797 127.818 186.812C126.803 190.451 131.372 197.982 133.488 201.282C134.08 202.129 135.35 202.552 136.281 202.129C139.835 200.521 147.705 196.544 148.805 192.905C149.313 191.128 148.382 188.505 147.112 185.966L144.235 187.574ZM133.573 196.797C132.896 196.628 132.472 195.867 132.726 195.19C132.896 194.513 133.657 194.09 134.334 194.343C135.011 194.513 135.434 195.274 135.18 195.951C135.011 196.628 134.25 196.967 133.573 196.797ZM141.612 194.428C140.935 194.259 140.512 193.497 140.766 192.82C140.935 192.143 141.696 191.72 142.373 191.974C143.05 192.143 143.474 192.905 143.22 193.582C142.966 194.259 142.289 194.597 141.612 194.428Z" fill="#2E977E"/>
<path d="M127.734 224.468C127.564 224.384 127.395 224.299 127.395 224.13L140.766 181.566C140.766 181.481 141.02 181.397 141.189 181.481C141.358 181.566 141.527 181.65 141.527 181.82L128.157 224.384C128.072 224.468 127.903 224.553 127.734 224.468Z" fill="#B3DA44"/>
<mask id="mask0" mask-type="alpha" maskUnits="userSpaceOnUse" x="252" y="180" width="27" height="25">
<path d="M276.867 204.334H254.354C253.188 204.334 252.314 203.387 252.314 202.294V182.84C252.314 181.747 253.261 180.8 254.354 180.8H276.867C278.033 180.8 278.98 181.747 278.98 182.84V202.294C278.98 203.459 278.033 204.334 276.867 204.334Z" fill="#82CBE5"/>
</mask>
<g mask="url(#mask0)">
<path d="M276.867 204.335H254.354C253.188 204.335 252.314 203.387 252.314 202.295V182.841C252.314 181.748 253.261 180.801 254.354 180.801H276.867C278.033 180.801 278.98 181.748 278.98 182.841V202.295C278.98 203.46 278.033 204.335 276.867 204.335Z" fill="#82CBE5"/>
<path d="M277.45 201.638C279.126 199.088 279.782 193.842 274.463 192.166C269.873 190.709 272.277 187.94 270.237 186.046V185.973C270.82 185.681 271.257 185.171 271.403 184.443C271.621 183.35 270.893 182.257 269.727 182.038C268.561 181.82 267.541 182.548 267.323 183.714C267.25 184.006 267.25 184.224 267.323 184.443C267.25 184.516 267.177 184.588 267.177 184.661C264.19 183.933 262.441 185.244 261.057 188.669C259.454 192.676 258.579 191 256.904 192.895C255.155 194.789 257.268 196.537 254.791 198.14C252.823 199.452 252.386 201.128 252.678 202.439C252.313 202.731 252.022 203.095 251.949 203.459C251.949 203.605 251.876 203.823 251.876 203.969C251.876 204.625 252.386 205.208 253.042 205.354C255.082 205.791 258.142 206.155 262.659 206.009C267.177 205.936 270.747 207.248 273.224 208.778C273.953 209.215 274.827 208.924 275.264 208.268C275.264 208.268 275.337 208.268 275.337 208.341C277.741 210.017 280.364 209.069 280.364 206.811C280.364 204.552 275.701 204.115 277.45 201.638Z" fill="#0699CD"/>
<path d="M268.342 185.608C269.468 185.608 270.382 184.695 270.382 183.568C270.382 182.441 269.468 181.528 268.342 181.528C267.215 181.528 266.302 182.441 266.302 183.568C266.302 184.695 267.215 185.608 268.342 185.608Z" fill="#354864"/>
<path d="M267.541 186.774C268.466 186.774 269.216 186.024 269.216 185.098C269.216 184.173 268.466 183.422 267.541 183.422C266.615 183.422 265.865 184.173 265.865 185.098C265.865 186.024 266.615 186.774 267.541 186.774Z" fill="#37ADD7"/>
<path d="M251.949 202.73C251.221 201.346 251.293 199.233 253.771 197.63C256.248 196.027 254.135 194.279 255.884 192.384C257.632 190.49 258.434 192.093 260.037 188.158C261.64 184.224 263.825 183.058 267.905 184.807C271.986 186.555 268.051 190.053 273.37 191.728C278.689 193.404 278.033 198.723 276.357 201.2C274.681 203.75 279.272 204.187 279.272 206.373C279.272 208.632 276.649 209.579 274.244 207.903C271.84 206.228 258.579 203.167 258.579 203.167C258.579 203.167 252.605 203.969 251.949 202.73Z" fill="#354864"/>
<path d="M269.289 192.458C269.289 192.458 271.475 195.591 270.455 199.161C269.799 201.638 271.912 200.982 273.369 203.824C274.827 206.665 273.661 208.122 273.661 208.122L264.189 202.731L263.97 197.121L269.289 192.458Z" fill="#26384F"/>
<path d="M262.805 192.822C262.805 192.822 261.639 192.895 260.546 193.186C259.526 193.405 257.413 194.133 257.413 196.465C257.413 198.505 255.738 198.359 254.718 199.671C254.208 200.399 253.843 201.565 254.499 202.439C255.155 203.241 263.024 201.419 263.024 201.419L264.772 198.578L262.805 192.822Z" fill="#26384F"/>
<path d="M266.083 200.982C265.792 199.889 265.282 198.213 265.282 198.213L262.586 197.703L261.42 199.306C261.42 199.306 261.202 199.452 261.056 199.67C260.4 200.545 259.307 203.532 262.805 204.115C266.375 204.77 266.448 202.002 266.083 200.982Z" fill="white"/>
<path opacity="0.2" d="M262.44 197.922C262.44 197.922 262.149 199.525 266.156 200.982L265.5 198.796L265.355 198.213L262.659 197.703L262.44 197.922Z" fill="#293136"/>
<path d="M269.714 192.261C270.418 188.504 268.969 185.079 266.477 184.612C263.985 184.145 261.394 186.813 260.69 190.57C259.986 194.327 261.435 197.752 263.927 198.219C266.419 198.686 269.009 196.018 269.714 192.261Z" fill="white"/>
<path d="M269.362 194.644C269.805 194.644 270.164 194.285 270.164 193.843C270.164 193.4 269.805 193.041 269.362 193.041C268.919 193.041 268.561 193.4 268.561 193.843C268.561 194.285 268.919 194.644 269.362 194.644Z" fill="white"/>
<path d="M260.473 192.968C260.915 192.968 261.274 192.609 261.274 192.166C261.274 191.724 260.915 191.365 260.473 191.365C260.03 191.365 259.671 191.724 259.671 192.166C259.671 192.609 260.03 192.968 260.473 192.968Z" fill="white"/>
<path d="M263.348 192.226C263.385 192.028 263.319 191.85 263.2 191.828C263.082 191.805 262.955 191.948 262.918 192.145C262.881 192.343 262.947 192.521 263.066 192.544C263.185 192.566 263.311 192.424 263.348 192.226Z" fill="#354864"/>
<path d="M266.828 192.848C266.865 192.65 266.799 192.472 266.68 192.45C266.562 192.428 266.435 192.57 266.398 192.768C266.361 192.965 266.427 193.144 266.546 193.166C266.665 193.188 266.791 193.046 266.828 192.848Z" fill="#354864"/>
<path d="M262.878 191.437C262.805 191.437 262.805 191.364 262.878 191.437C262.805 191.364 262.805 191.364 262.878 191.292C263.096 191.146 263.315 191.146 263.461 191.219C263.679 191.292 263.825 191.51 263.825 191.51V191.583H263.752C263.752 191.583 263.679 191.437 263.461 191.364C263.242 191.292 263.096 191.292 262.878 191.437Z" fill="#354864"/>
<path d="M266.302 192.094C266.302 192.021 266.229 192.021 266.302 192.094C266.229 192.021 266.229 192.021 266.302 191.948C266.521 191.802 266.739 191.802 266.885 191.875C267.104 191.948 267.249 192.167 267.249 192.167V192.24H267.177C267.177 192.24 267.104 192.094 266.885 192.021C266.667 191.948 266.521 191.948 266.302 192.094Z" fill="#354864"/>
<path opacity="0.2" d="M269.216 190.854C269.216 190.854 268.269 192.02 266.739 191.146C265.209 190.271 265.646 188.814 265.646 188.814C265.646 188.814 264.699 189.907 263.606 189.98C262.513 190.053 261.93 189.106 261.93 189.106L262.513 187.794L265.209 187.43L267.614 188.741L269.216 190.854Z" fill="#293136"/>
<path d="M260.546 191.365C260.546 191.365 261.275 190.855 261.858 189.106C261.858 189.106 263.461 190.49 265.428 188.523C265.428 188.523 265.938 191.656 269.071 190.782C269.071 190.782 268.998 192.166 269.581 192.968L271.621 191.729L270.382 189.98L269.435 186.119L267.759 184.807L265.136 184.152L262.659 185.172L260.109 189.252L260.546 191.365Z" fill="#354864"/>
<path d="M266.156 200.983C263.461 205.5 261.348 202.367 261.202 202.149C260.182 200.473 261.42 199.307 261.42 199.307C261.42 199.307 251.439 200.254 250.929 202.95C250.856 203.096 250.856 203.242 250.856 203.46C250.856 204.116 251.366 204.699 252.022 204.844C254.062 205.282 257.122 205.646 261.639 205.5C266.156 205.427 269.726 206.739 272.204 208.269C273.078 208.779 274.171 208.342 274.389 207.322C274.754 204.99 270.309 202.586 266.156 200.983Z" fill="#B3DA44"/>
<path d="M253.479 203.46C253.72 203.46 253.916 203.264 253.916 203.023C253.916 202.782 253.72 202.586 253.479 202.586C253.237 202.586 253.041 202.782 253.041 203.023C253.041 203.264 253.237 203.46 253.479 203.46Z" fill="#6B8F04"/>
<path d="M257.413 202.076C257.654 202.076 257.85 201.88 257.85 201.638C257.85 201.397 257.654 201.201 257.413 201.201C257.172 201.201 256.976 201.397 256.976 201.638C256.976 201.88 257.172 202.076 257.413 202.076Z" fill="#6B8F04"/>
<path d="M259.963 204.335C260.043 204.335 260.109 204.269 260.109 204.189C260.109 204.108 260.043 204.043 259.963 204.043C259.882 204.043 259.817 204.108 259.817 204.189C259.817 204.269 259.882 204.335 259.963 204.335Z" fill="#6B8F04"/>
<path d="M265.282 204.699C265.402 204.699 265.5 204.601 265.5 204.481C265.5 204.36 265.402 204.262 265.282 204.262C265.161 204.262 265.063 204.36 265.063 204.481C265.063 204.601 265.161 204.699 265.282 204.699Z" fill="#6B8F04"/>
<path d="M268.487 203.679C268.729 203.679 268.924 203.483 268.924 203.241C268.924 203 268.729 202.804 268.487 202.804C268.246 202.804 268.05 203 268.05 203.241C268.05 203.483 268.246 203.679 268.487 203.679Z" fill="#6B8F04"/>
<path d="M260.328 191.729C260.328 191.729 259.963 192.167 260.4 192.531" stroke="#354864" stroke-width="0.201346" stroke-miterlimit="10" stroke-linecap="round" stroke-linejoin="round"/>
<path d="M269.653 193.478C269.653 193.478 269.872 193.988 269.289 194.206" stroke="#354864" stroke-width="0.201346" stroke-miterlimit="10" stroke-linecap="round" stroke-linejoin="round"/>
<path d="M264.626 193.842L264.262 194.425C264.189 194.571 264.262 194.717 264.407 194.717L264.772 194.789" stroke="#354864" stroke-width="0.201346" stroke-miterlimit="10" stroke-linecap="round" stroke-linejoin="round"/>
<path d="M263.315 195.3C263.315 195.3 263.46 196.101 264.335 196.247C265.355 196.466 265.646 195.737 265.646 195.737" stroke="#354864" stroke-width="0.201346" stroke-miterlimit="10" stroke-linecap="round" stroke-linejoin="round"/>
<path opacity="0.5" d="M269.727 183.714C269.654 183.714 269.654 183.641 269.654 183.641C269.654 183.641 269.872 182.913 269.289 182.476C268.561 181.893 268.051 182.33 268.051 182.33H267.978V182.257C267.978 182.257 268.634 181.82 269.362 182.403C270.018 182.913 269.727 183.641 269.727 183.714Z" fill="white"/>
<path opacity="0.5" d="M269.945 189.761C269.945 189.761 269.872 189.761 269.945 189.761C269.654 189.324 269.581 188.887 269.581 188.377C269.508 187.867 269.435 187.211 269.071 186.701C268.269 185.463 266.885 184.88 266.812 184.88C266.812 184.88 266.739 184.807 266.812 184.807C266.812 184.807 266.885 184.734 266.885 184.807C266.885 184.807 268.342 185.39 269.144 186.701C269.508 187.284 269.581 187.867 269.654 188.45C269.727 188.96 269.727 189.397 269.945 189.761C270.018 189.761 270.018 189.761 269.945 189.761Z" fill="white"/>
</g>
<path opacity="0.8" d="M287.563 96.1002C288.917 97.3695 289.255 99.2312 288.325 100.247C287.394 101.262 287.224 99.2312 285.871 97.8773C284.517 96.608 282.401 96.5233 283.416 95.5079C284.432 94.4925 286.209 94.8309 287.563 96.1002Z" fill="white"/>
<path d="M77.3584 211.691H73.2118C71.1808 211.691 69.573 213.299 69.573 215.33V218.884C69.573 223.876 73.6349 227.938 78.6277 227.938H166.467C150.896 223.284 123.817 224.977 100.376 219.476C91.4905 217.445 83.8744 214.568 77.3584 211.691Z" fill="#82CBE5"/>
<path d="M302.541 211.691H77.3584C83.8744 214.568 91.4059 217.445 100.291 219.476C123.817 224.892 150.812 223.2 166.382 227.938H297.041C302.034 227.938 306.096 223.876 306.096 218.884V215.33C306.18 213.384 304.572 211.691 302.541 211.691Z" fill="#82CBE5"/>
<path d="M77.3584 211.691H73.2118C71.1808 211.691 69.573 213.299 69.573 215.33V218.884C69.573 223.876 73.6349 227.938 78.6277 227.938H166.467C150.896 223.284 123.817 224.977 100.376 219.476C91.4905 217.445 83.8744 214.568 77.3584 211.691Z" fill="#62BBD3"/>
<path d="M206.409 217.615H169.429C168.583 217.615 167.906 216.938 167.906 216.091V211.691H207.932V216.091C207.932 216.938 207.255 217.615 206.409 217.615Z" fill="#62BBD3"/>
<path opacity="0.45" d="M281.893 98.1315H213.264C222.318 110.994 252.275 121.571 274.023 138.664C278.17 141.965 281.893 145.265 285.109 148.565V101.432C285.109 99.6546 283.67 98.1315 281.893 98.1315Z" fill="white"/>
<g style="mix-blend-mode:multiply" opacity="0.5">
<path d="M141.164 211.691C132.617 206.868 123.732 201.537 115.946 195.444C104.184 186.22 96.483 176.405 90.4747 169.127V211.691H141.164Z" fill="#A3E5D4"/>
</g>
</g>
<defs>
<clipPath id="clip0">
<rect width="320" height="320" fill="white" transform="translate(0.580078)"/>
</clipPath>
</defs>
</svg>
