<svg width="321" height="320" viewBox="0 0 321 320" fill="none" xmlns="http://www.w3.org/2000/svg">
<g clip-path="url(#clip0)">
<mask id="path-1-inside-1" fill="white">
<path d="M310.268 155.905C312.785 178.347 301.638 202.697 289.729 225.053C277.824 247.555 265.017 268.074 246.524 282.283C228.172 296.482 204.127 304.078 183.3 300.006C162.4 295.866 144.571 279.777 130.391 262.68C116.279 245.505 105.603 227.266 100.661 206.691C95.7924 186.184 96.4442 163.284 106.157 146C115.87 128.717 134.571 116.982 153.224 106.057C172.014 94.9745 190.896 84.6911 211.416 82.634C232.003 80.4984 254.228 86.5891 273.253 99.8054C292.35 113.089 307.895 133.599 310.268 155.905Z"/>
</mask>
<path d="M310.268 155.905C312.785 178.347 301.638 202.697 289.729 225.053C277.824 247.555 265.017 268.074 246.524 282.283C228.172 296.482 204.127 304.078 183.3 300.006C162.4 295.866 144.571 279.777 130.391 262.68C116.279 245.505 105.603 227.266 100.661 206.691C95.7924 186.184 96.4442 163.284 106.157 146C115.87 128.717 134.571 116.982 153.224 106.057C172.014 94.9745 190.896 84.6911 211.416 82.634C232.003 80.4984 254.228 86.5891 273.253 99.8054C292.35 113.089 307.895 133.599 310.268 155.905Z" stroke="#41337A" stroke-width="4" mask="url(#path-1-inside-1)"/>
<mask id="path-2-inside-2" fill="white">
<path d="M181.286 290.279C161.227 286.144 143.386 269.484 127.479 252.72C111.445 235.918 97.3751 218.886 90.3523 198.649C83.2988 178.54 83.5467 155.302 92.9436 138.185C102.419 121.024 121.329 109.933 140.076 102.328C158.871 94.8048 177.612 90.5959 196.747 92.077C215.802 93.6025 235.36 100.647 247.515 114.051C259.67 127.455 264.5 147.175 268.647 166.624C272.89 186.237 276.418 205.705 272.392 224.284C268.414 242.946 256.882 260.718 240.111 273.669C223.261 286.664 201.187 294.503 181.286 290.279Z"/>
</mask>
<path d="M181.286 290.279C161.227 286.144 143.386 269.484 127.479 252.72C111.445 235.918 97.3751 218.886 90.3523 198.649C83.2988 178.54 83.5467 155.302 92.9436 138.185C102.419 121.024 121.329 109.933 140.076 102.328C158.871 94.8048 177.612 90.5959 196.747 92.077C215.802 93.6025 235.36 100.647 247.515 114.051C259.67 127.455 264.5 147.175 268.647 166.624C272.89 186.237 276.418 205.705 272.392 224.284C268.414 242.946 256.882 260.718 240.111 273.669C223.261 286.664 201.187 294.503 181.286 290.279Z" stroke="#41337A" stroke-width="4" mask="url(#path-2-inside-2)"/>
<path d="M198.535 63.1749C215.057 77.0573 222.682 101.107 228.45 124.277C234.218 147.545 238.129 169.933 233.534 191.734C229.135 213.438 216.132 234.164 197.85 244.82C179.471 255.476 155.616 255.867 133.913 253.228C112.111 250.49 92.1676 244.722 75.059 233.773C58.0481 222.628 43.4813 206.399 39.473 188.117C35.4647 169.933 41.7215 149.696 48.565 130.143C55.4085 110.395 62.7407 91.0375 76.7209 76.373C90.7012 61.6106 111.329 51.4432 134.206 48.3148C157.18 45.0886 182.208 49.2924 198.535 63.1749Z" fill="#CFCCDD"/>
<path d="M256.802 233.924H34.308C31.0206 233.924 28.3134 231.255 28.3134 227.968V93.3808C28.3134 90.0934 31.0206 87.3862 34.308 87.3862H256.841C260.128 87.3862 262.835 90.0934 262.835 93.3808V227.968C262.797 231.255 260.089 233.924 256.802 233.924Z" fill="#71669B"/>
<path d="M262.619 228.107H40.1249C36.8376 228.107 34.1304 225.438 34.1304 222.151V87.5639C34.1304 84.2766 36.8376 81.5694 40.1249 81.5694H262.658C265.945 81.5694 268.652 84.2766 268.652 87.5639V222.151C268.614 225.438 265.906 228.107 262.619 228.107Z" fill="#D6DEE6"/>
<mask id="mask0" mask-type="alpha" maskUnits="userSpaceOnUse" x="51" y="99" width="82" height="87">
<path d="M117.61 105.948C124.494 111.71 127.626 121.65 129.985 131.241C132.383 140.871 134.008 150.191 132.113 159.203C130.256 168.175 124.88 176.8 117.339 181.208C109.72 185.617 99.858 185.772 90.8082 184.689C81.797 183.529 73.5207 181.17 66.4046 176.606C59.3272 172.043 53.3326 165.313 51.6696 157.733C50.0066 150.191 52.5978 141.799 55.421 133.678C58.2443 125.479 61.2996 117.473 67.1007 111.401C72.9019 105.29 81.449 101.075 90.9242 99.76C100.438 98.4838 110.803 100.185 117.61 105.948Z" fill="#F2FAFC"/>
</mask>
<g mask="url(#mask0)">
<path d="M117.61 105.948C124.494 111.71 127.626 121.65 129.985 131.241C132.383 140.871 134.008 150.191 132.113 159.203C130.256 168.175 124.88 176.8 117.339 181.208C109.72 185.617 99.858 185.772 90.8082 184.689C81.797 183.529 73.5207 181.17 66.4046 176.606C59.3272 172.043 53.3326 165.313 51.6696 157.733C50.0066 150.191 52.5978 141.799 55.421 133.678C58.2443 125.479 61.2996 117.473 67.1007 111.401C72.9019 105.29 81.449 101.075 90.9242 99.76C100.438 98.4838 110.803 100.185 117.61 105.948Z" fill="#F2F7FD"/>
<path d="M87.6948 115.023C88.1202 114.52 85.2969 103.42 97.2474 103.265C106.916 103.111 106.916 110.227 108.54 114.52C110.474 119.586 115.888 120.746 115.154 128.365C114.419 136.255 111.248 136.1 114.187 139.89C117.667 144.376 118.402 149.133 115.076 155.089C113.065 158.686 110.049 163.366 116.12 167.272C121.496 170.714 124.9 174.426 120.336 179.454C113.375 187.073 116.585 185.835 118.248 187.112C119.911 188.388 114.457 193.802 109.043 191.482C109.043 191.482 116.971 192.062 115.231 188.581C113.491 185.101 107.264 182.007 109.275 175.819C110.087 173.344 103.899 175.355 100.264 172.299C96.6286 169.283 95.8164 165.57 95.5457 161.935C95.275 158.299 96.5125 155.089 96.5125 155.089L87.6948 115.023Z" fill="#243547"/>
<path d="M60.6617 122.564C60.6617 122.564 60.623 122.525 60.5455 122.448C60.623 122.525 60.6617 122.564 60.6617 122.564Z" fill="#221616"/>
<path d="M101.231 169.553C99.5295 166.188 96.861 160.929 96.861 160.929L87.6951 160.735L84.6398 166.807C84.6398 166.807 84.021 167.349 83.5956 168.122C81.8166 171.41 79.9216 181.929 92.0653 182.006C92.104 182.006 92.1427 182.006 92.1427 182.006C92.1814 182.006 92.22 182.006 92.22 182.006C104.325 182.277 102.894 172.918 101.231 169.553Z" fill="white"/>
<path opacity="0.2" d="M87.1924 161.702C87.1924 161.702 87.115 167.155 101.309 169.708L97.7505 162.708L96.861 160.929L87.6952 160.735L87.1924 161.702Z" fill="#293136"/>
<path d="M108.159 138.637C108.317 125.673 101.485 115.079 92.899 114.975C84.3134 114.871 77.2257 125.295 77.0681 138.259C76.9106 151.223 83.7428 161.817 92.3284 161.921C100.914 162.025 108.002 151.601 108.159 138.637Z" fill="white"/>
<path d="M107.96 146.657C109.477 146.657 110.706 145.427 110.706 143.911C110.706 142.394 109.477 141.165 107.96 141.165C106.444 141.165 105.214 142.394 105.214 143.911C105.214 145.427 106.444 146.657 107.96 146.657Z" fill="white"/>
<path d="M77.2526 146.27C78.7691 146.27 79.9985 145.041 79.9985 143.524C79.9985 142.008 78.7691 140.778 77.2526 140.778C75.7361 140.778 74.5067 142.008 74.5067 143.524C74.5067 145.041 75.7361 146.27 77.2526 146.27Z" fill="white"/>
<path d="M86.8098 142.031C86.8174 141.412 86.5291 140.906 86.1661 140.902C85.803 140.898 85.5026 141.396 85.495 142.015C85.4875 142.635 85.7757 143.141 86.1388 143.145C86.5019 143.149 86.8023 142.651 86.8098 142.031Z" fill="#354864"/>
<path d="M98.7398 142.185C98.7474 141.566 98.4591 141.06 98.0961 141.056C97.733 141.051 97.4326 141.55 97.425 142.169C97.4175 142.788 97.7057 143.294 98.0688 143.299C98.4319 143.303 98.7323 142.804 98.7398 142.185Z" fill="#354864"/>
<path d="M84.7944 139.735C84.717 139.735 84.6784 139.696 84.6397 139.657C84.5623 139.58 84.5623 139.425 84.6784 139.348C85.2972 138.807 85.9546 138.574 86.5734 138.652C87.4242 138.768 87.8883 139.387 87.927 139.425C88.0044 139.541 87.9657 139.657 87.8883 139.735C87.7723 139.812 87.6563 139.773 87.5789 139.696C87.5789 139.696 87.1922 139.193 86.5347 139.116C86.032 139.039 85.5292 139.271 84.9878 139.696C84.9104 139.696 84.8717 139.735 84.7944 139.735Z" fill="#354864"/>
<path d="M96.6673 139.889C96.5899 139.889 96.5513 139.851 96.5126 139.812C96.4352 139.735 96.4352 139.58 96.5513 139.503C97.1701 138.961 97.8275 138.729 98.4463 138.807C99.2972 138.923 99.7613 139.541 99.7999 139.58C99.8773 139.696 99.8386 139.812 99.7612 139.889C99.6452 139.967 99.5292 139.928 99.4519 139.851C99.4519 139.851 99.0651 139.348 98.4076 139.271C97.9049 139.232 97.4021 139.425 96.8607 139.851C96.7833 139.851 96.706 139.889 96.6673 139.889Z" fill="#354864"/>
<path d="M101.308 169.707C94.927 186.221 86.2252 177.209 85.4904 176.397C81.1202 171.524 84.6009 166.806 84.6009 166.806C84.6009 166.806 51.8823 175.779 51.7663 184.983C51.7663 185.563 51.8049 186.105 51.8823 186.646C52.269 188.889 54.2414 190.475 56.4845 190.552C63.6006 190.784 74.0428 190.165 88.7777 187.226C103.822 184.248 116.353 186.685 125.634 190.359C128.767 191.596 132.248 189.392 132.286 186.027C132.286 185.989 132.286 185.989 132.286 185.95C132.441 178.022 116.121 172.685 101.308 169.707Z" fill="#FF5964"/>
<path d="M76.634 175.392C77.1367 175.237 77.8716 174.464 77.9489 173.961C77.9876 173.845 77.9102 173.729 77.8329 173.652C77.4075 173.265 75.9378 172.801 75.6284 173.11C75.319 173.42 75.8605 174.773 76.2472 175.276C76.3246 175.353 76.4793 175.431 76.634 175.392Z" fill="#E2222E"/>
<path d="M116.159 179.607C116.082 180.11 116.469 181.116 116.894 181.425C116.971 181.503 117.126 181.503 117.203 181.464C117.745 181.232 118.789 180.11 118.634 179.685C118.48 179.298 117.01 179.182 116.43 179.337C116.275 179.337 116.159 179.453 116.159 179.607Z" fill="#E2222E"/>
<path d="M64.1808 182.663C64.8769 183.011 66.4625 183.05 67.0813 182.625C67.236 182.547 67.3134 182.354 67.3134 182.199C67.2747 181.348 66.2692 179.26 65.6117 179.26C64.9542 179.26 64.0261 181.232 63.91 182.161C63.91 182.354 63.9874 182.586 64.1808 182.663Z" fill="#E2222E"/>
<path d="M106.065 176.358C106.452 177.016 107.805 177.905 108.54 177.905C108.695 177.905 108.85 177.789 108.966 177.635C109.391 176.9 109.7 174.579 109.12 174.231C108.579 173.883 106.722 175.043 106.142 175.739C105.988 175.933 105.949 176.204 106.065 176.358Z" fill="#E2222E"/>
<path d="M76.5954 142.287C76.5954 142.287 75.5512 143.911 77.2142 144.917" stroke="#354864" stroke-width="0.500549" stroke-miterlimit="10" stroke-linecap="round" stroke-linejoin="round"/>
<path d="M108.656 142.674C108.656 142.674 109.662 144.337 107.96 145.265" stroke="#354864" stroke-width="0.500549" stroke-miterlimit="10" stroke-linecap="round" stroke-linejoin="round"/>
<path d="M92.1038 146.813L91.253 148.863C91.1369 149.327 91.485 149.791 91.9491 149.791H93.148" stroke="#354864" stroke-width="0.500549" stroke-miterlimit="10" stroke-linecap="round" stroke-linejoin="round"/>
<path d="M88.5457 152.535C88.5457 152.535 89.5125 155.087 92.4131 155.126C95.9325 155.165 96.5899 152.651 96.5899 152.651" stroke="#354864" stroke-width="0.500549" stroke-miterlimit="10" stroke-linecap="round" stroke-linejoin="round"/>
<path d="M92.6062 130.84C97.6898 130.84 101.811 126.962 101.811 122.177C101.811 117.393 97.6898 113.514 92.6062 113.514C87.5227 113.514 83.4017 117.393 83.4017 122.177C83.4017 126.962 87.5227 130.84 92.6062 130.84Z" fill="#71669B"/>
<path d="M94.2306 122.642C105.988 122.836 104.982 124.615 104.982 124.615C104.982 124.615 105.949 126.046 107.805 128.676C107.148 121.289 100.573 115.526 92.5289 115.526C84.0592 115.526 77.2138 121.985 77.2138 129.913C77.5619 129.217 77.9486 128.521 78.374 127.864C80.2691 125.079 82.4735 122.488 94.2306 122.642Z" fill="#2E4057"/>
<path d="M108.463 129.564C108.231 129.255 108.037 128.946 107.844 128.636C105.988 125.813 105.021 124.305 105.021 124.305C105.021 124.305 106.374 119.586 94.6174 119.393C82.8604 119.2 81.1974 122.023 79.3024 125.001C78.8769 125.697 78.1421 126.934 77.794 127.669C77.2526 128.868 71.3354 136.487 75.8217 142.095C77.2139 143.797 78.7996 144.145 77.2139 149.752C75.6283 155.36 82.2416 156.211 82.2416 156.211C80.3466 154.548 79.457 152.846 81.12 150.178C82.9377 147.277 82.4737 143.835 80.8107 142.675C79.4957 141.747 80.0372 139.194 80.6173 137.802C81.5455 135.636 83.9433 134.399 83.9433 134.399C87.9654 134.592 92.0262 133.393 97.2086 129.68C97.2086 129.68 102.739 129.178 104.093 133.393C105.098 136.487 104.015 137.106 103.745 139.31C103.242 143.487 104.711 146.233 105.292 147.2C107.071 150.371 105.253 153.388 103.358 155.283C103.358 155.283 107.303 152.692 107.419 150.371C107.844 143.448 107.805 141.399 109.004 139.156C110.706 135.946 109.971 131.846 108.463 129.564Z" fill="#2E4057"/>
<path opacity="0.2" d="M95.3507 105.392C95.3507 105.392 98.8314 103.922 101.771 105.701C104.71 107.48 104.478 109.53 104.478 109.53" stroke="white" stroke-width="0.7" stroke-miterlimit="10" stroke-linecap="round" stroke-linejoin="round"/>
<path opacity="0.2" d="M110.666 120.863C110.666 120.863 114.456 124.15 113.566 129.216" stroke="white" stroke-width="0.7" stroke-miterlimit="10" stroke-linecap="round" stroke-linejoin="round"/>
<path opacity="0.2" d="M99.2954 119.392C99.2954 119.392 103.008 120.862 104.632 124.923" stroke="white" stroke-width="0.7" stroke-miterlimit="10" stroke-linecap="round" stroke-linejoin="round"/>
<path opacity="0.2" d="M83.9047 134.437C83.9047 134.437 81.5069 135.674 80.5787 137.84C79.9986 139.233 79.4571 141.785 80.7721 142.713C81.7003 143.371 82.2417 144.724 82.2417 146.271C82.2417 146.271 82.7832 143.487 81.5456 141.553C80.3467 139.619 81.7003 137.724 83.4019 137.105C85.1036 136.525 88.1589 136.796 93.1092 134.553C98.0596 132.271 97.1314 129.719 97.1314 129.719C91.9877 133.431 87.9269 134.63 83.9047 134.437Z" fill="#293136"/>
</g>
<path d="M235.199 109.956H153.673C152.822 109.956 152.126 109.26 152.126 108.41C152.126 107.559 152.822 106.863 153.673 106.863H235.199C236.05 106.863 236.746 107.559 236.746 108.41C236.746 109.26 236.05 109.956 235.199 109.956Z" fill="#252B2F"/>
<path d="M211.956 139.04H153.673C152.822 139.04 152.126 138.343 152.126 137.493C152.126 136.642 152.822 135.946 153.673 135.946H211.956C212.806 135.946 213.502 136.642 213.502 137.493C213.502 138.343 212.806 139.04 211.956 139.04Z" fill="#252B2F"/>
<path d="M191.303 167.93H153.673C152.822 167.93 152.126 167.234 152.126 166.383C152.126 165.532 152.822 164.836 153.673 164.836H191.303C192.154 164.836 192.85 165.532 192.85 166.383C192.85 167.234 192.154 167.93 191.303 167.93Z" fill="#252B2F"/>
<path d="M116.159 205.097H67.9704C67.1195 205.097 66.4234 204.4 66.4234 203.55C66.4234 202.699 67.1195 202.003 67.9704 202.003H116.159C117.01 202.003 117.706 202.699 117.706 203.55C117.706 204.4 117.01 205.097 116.159 205.097Z" fill="#252B2F"/>
<path opacity="0.2" d="M278.707 153.968C276.31 151.57 272.403 151.492 269.928 153.852L197.916 221.919L173.049 197.051C169.491 193.493 163.69 193.493 160.17 197.051C156.612 200.609 156.612 206.41 160.17 209.93L191.264 241.024C191.922 241.681 192.695 242.223 193.469 242.648C196.911 244.466 201.281 243.924 204.182 241.024L278.785 162.708C281.144 160.272 281.105 156.365 278.707 153.968Z" fill="#252B2F"/>
<path d="M280.022 147.355C277.625 144.957 273.718 144.879 271.243 147.239L199.27 215.306L174.402 190.438C170.844 186.88 165.043 186.88 161.524 190.438C157.966 193.996 157.966 199.797 161.524 203.317L192.618 234.411C193.276 235.068 194.049 235.61 194.823 236.035C198.265 237.853 202.635 237.311 205.535 234.411L280.138 156.095C282.459 153.659 282.42 149.752 280.022 147.355Z" fill="#06CD9E"/>
<path opacity="0.4" d="M280.1 153.968C279.094 154.973 278.669 152.343 276.929 150.564C275.188 148.824 272.752 148.592 273.757 147.586C274.763 146.581 277.238 146.929 278.978 148.708C280.757 150.448 281.105 152.962 280.1 153.968Z" fill="white"/>
<path opacity="0.4" d="M174.248 196.316C173.436 197.67 172.121 194.808 169.568 193.261C167.016 191.714 164.193 192.023 165.005 190.67C165.817 189.316 168.756 189.2 171.309 190.747C173.861 192.294 175.06 195.001 174.248 196.316Z" fill="white"/>
<ellipse rx="3.81963" ry="3.8211" transform="matrix(-0.451901 0.892156 -0.849914 -0.527065 181.741 71.8478)" fill="#41337A"/>
<ellipse rx="3.81964" ry="3.82112" transform="matrix(-0.451901 0.892156 -0.849915 -0.527064 157.835 57.0538)" fill="#41337A"/>
<ellipse rx="3.81964" ry="3.82111" transform="matrix(-0.451901 0.892156 -0.849915 -0.527064 168.621 33.0737)" fill="#41337A"/>
<ellipse rx="3.81964" ry="3.82111" transform="matrix(-0.451901 0.892156 -0.849915 -0.527064 133.93 42.2579)" fill="#41337A"/>
</g>
<defs>
<clipPath id="clip0">
<rect width="320" height="320" fill="white" transform="translate(0.580078)"/>
</clipPath>
</defs>
</svg>
