<?xml version="1.0" standalone="no"?>
<!DOCTYPE svg PUBLIC "-//W3C//DTD SVG 20010904//EN"
 "http://www.w3.org/TR/2001/REC-SVG-20010904/DTD/svg10.dtd">
<svg version="1.0" xmlns="http://www.w3.org/2000/svg"
 width="300.000000pt" height="162.000000pt" viewBox="0 0 300.000000 162.000000"
 preserveAspectRatio="xMidYMid meet">
<metadata>
Created by potrace 1.10, written by Peter Selinger 2001-2011
</metadata>
<g transform="translate(0.000000,162.000000) scale(0.100000,-0.100000)"
fill="#ffffff" stroke="none">
<path d="M2540 1230 l0 -390 55 0 54 0 3 151 3 150 110 -150 110 -150 63 0
c48 -1 61 2 56 12 -4 6 -53 73 -109 147 -56 74 -104 140 -109 147 -6 11 60
109 182 271 l24 32 -64 0 -64 0 -102 -141 -102 -142 0 200 0 199 -55 27 -55
27 0 -390z"/>
<path d="M497 1250 c-103 -131 -190 -246 -193 -254 -5 -14 7 -16 100 -16 58 0
106 -3 106 -8 0 -4 -25 -77 -55 -161 -38 -106 -52 -158 -45 -165 13 -13 14
-13 239 259 144 174 187 232 179 242 -7 9 -41 13 -108 13 l-97 0 48 158 c26
86 45 160 42 165 -2 4 -10 7 -16 7 -7 -1 -96 -108 -200 -240z m118 6 c-19 -65
-32 -122 -29 -127 3 -5 48 -9 100 -9 l94 0 -148 -178 c-81 -99 -148 -176 -150
-173 -1 4 16 56 38 116 21 60 36 113 32 117 -4 4 -49 8 -100 10 l-93 3 143
182 c79 100 144 180 145 179 2 -1 -13 -55 -32 -120z"/>
<path d="M1089 1437 c-57 -22 -106 -55 -143 -99 -62 -72 -66 -96 -66 -435 l0
-303 50 25 50 25 0 129 0 130 58 -31 c76 -39 157 -47 237 -23 48 13 70 28 121
79 51 51 66 73 79 121 43 146 -26 300 -164 367 -55 26 -170 34 -222 15z m176
-106 c70 -31 125 -113 125 -186 0 -76 -61 -162 -136 -191 -131 -50 -274 49
-274 189 0 151 150 250 285 188z"/>
<path d="M1736 1433 c-66 -23 -147 -99 -177 -165 -17 -39 -23 -71 -23 -123 0
-231 245 -377 448 -267 l56 30 0 -24 c0 -18 11 -29 50 -49 27 -14 52 -25 56
-25 4 0 5 92 2 203 -4 197 -5 205 -31 259 -31 62 -84 116 -149 149 -58 30
-165 35 -232 12z m216 -119 c154 -108 94 -354 -91 -372 -181 -17 -294 193
-179 333 67 81 186 98 270 39z"/>
<path d="M2410 1441 c-52 -16 -108 -51 -143 -90 -71 -79 -72 -82 -75 -333 l-3
-227 50 27 51 27 0 174 c0 158 2 179 21 219 26 52 87 100 141 108 l38 7 0 48
c0 47 -1 49 -27 48 -16 0 -39 -4 -53 -8z"/>
<path d="M284 917 c-6 -17 31 -97 46 -97 19 0 19 19 0 58 -23 47 -38 60 -46
39z"/>
<path d="M340 789 c0 -20 21 -49 35 -49 18 0 18 2 3 35 -11 25 -38 35 -38 14z"/>
<path d="M628 734 c-83 -42 -96 -52 -82 -67 8 -8 184 80 184 93 0 21 -19 16
-102 -26z"/>
<path d="M212 713 c4 -22 85 -50 101 -34 7 7 -3 16 -37 31 -58 24 -68 25 -64
3z"/>
<path d="M228 589 c-45 -22 -78 -46 -78 -54 0 -8 3 -15 8 -14 20 2 176 86 180
97 7 22 -31 12 -110 -29z"/>
<path d="M570 590 c0 -15 40 -32 58 -25 15 6 15 8 -2 21 -23 16 -56 19 -56 4z"/>
<path d="M350 540 c-22 -43 -25 -60 -10 -60 11 0 60 74 60 90 0 25 -31 6 -50
-30z"/>
<path d="M457 574 c-7 -7 44 -114 54 -114 20 0 18 24 -6 70 -24 48 -34 57 -48
44z"/>
<path d="M664 559 c-8 -14 5 -29 27 -29 10 0 19 6 19 14 0 16 -37 28 -46 15z"/>
<path d="M287 430 c-17 -28 -16 -50 1 -50 13 0 44 59 37 70 -10 17 -20 12 -38
-20z"/>
</g>
</svg>
